# xmcd
#
# Track frame offsets: 
#        150
#        14480
#        31962
#        44842
#        56740
#        74080
#        87280
#        110627
#        123367
#        142420
#        160530
#        172922
#
# Disc length: 2516 seconds
#
# Revision: 2
# Processed by: cddbd v1.5.2PL0 Copyright (c) Steve Scherf et al.
# Submitted via: ExactAudioCopy v1.0b3
#
DISCID=b009d20c
DTITLE=Low budget blues band - Country file
DYEAR=1994
DGENRE=Blues
TTITLE0=Tennessee plates
TTITLE1=Come on, Sheila
TTITLE2=City girls
TTITLE3=Promise you anything
TTITLE4=Desperados waiting for the train
TTITLE5=Back to bayou teche
TTITLE6=Loser's game
TTITLE7=Take a look at my heart
TTITLE8=The streets and the bars
TTITLE9=I've been down
TTITLE10=Get back to the country
TTITLE11=All the best
EXTD=
EXTT0=
EXTT1=
EXTT2=
EXTT3=
EXTT4=
EXTT5=
EXTT6=
EXTT7=
EXTT8=
EXTT9=
EXTT10=
EXTT11=
PLAYORDER=
